<svg xmlns="http://www.w3.org/2000/svg" width="145.293" height="28.5" viewBox="0 0 145.293 28.5"><g id="Gruppe_120" data-name="Gruppe 120" transform="translate(-1601.349 -37.762)"><g id="Gruppe_113" data-name="Gruppe 113" transform="translate(1601.349 43.586)"><path id="Pfad_118" data-name="Pfad 118" d="M-1.029-.211-5.15,3.28A5.853,5.853,0,0,0-9.687,1.124c-2.959,0-5.326,2.356-5.326,5.935,0,3.6,2.345,5.936,5.3,5.936a6.174,6.174,0,0,0,4.625-2.178l4.077,3.534A10.4,10.4,0,0,1-9.534,18.4c-6.773,0-11.311-4.8-11.311-11.338,0-6.513,4.537-11.337,11.311-11.337A10.323,10.323,0,0,1-1.029-.211" transform="translate(20.845 4.279)" fill="#de524d"></path></g><g id="Gruppe_114" data-name="Gruppe 114" transform="translate(1623.338 43.586)"><path id="Pfad_119" data-name="Pfad 119" d="M-.753-.024l-.856,5.759a9.155,9.155,0,0,0-3.463-.69c-2.652,0-4.471,1.646-4.471,4.845V21.63h-5.722V.088h5.546V2.444A6.671,6.671,0,0,1-3.735-.49,8.607,8.607,0,0,1-.753-.024" transform="translate(15.265 0.49)" fill="#de524d"></path></g><g id="Gruppe_115" data-name="Gruppe 115" transform="translate(1637.85 43.586)"><path id="Pfad_120" data-name="Pfad 120" d="M-1.094-.587A16.893,16.893,0,0,1-1.2,1.368h-15.06A5.144,5.144,0,0,0-10.8,5.836a8.519,8.519,0,0,0,5.37-2.067L-2.08,7.5a12.786,12.786,0,0,1-9.053,3.267c-6.509,0-11.025-4.49-11.025-11.271s4.383-11.4,10.74-11.4C-5.3-11.9-1.116-7.3-1.094-.587m-15.147-2h9.4C-7.362-5.345-9.008-6.9-11.462-6.9c-2.7,0-4.274,1.646-4.778,4.313" transform="translate(22.158 11.903)" fill="#de524d"></path></g><g id="Gruppe_116" data-name="Gruppe 116" transform="translate(1660.712 43.586)"><path id="Pfad_121" data-name="Pfad 121" d="M-1.154-1.148h-5.59V-3.527A7.752,7.752,0,0,1-13.1-.592c-5.853,0-10.28-4.869-10.28-11.337s4.427-11.338,10.28-11.338a7.734,7.734,0,0,1,6.356,2.957V-22.69h5.59ZM-17.529-11.93c0,3.289,2.128,5.935,5.48,5.935,3.266,0,5.48-2.534,5.48-5.935s-2.214-5.935-5.48-5.935c-3.353,0-5.48,2.645-5.48,5.935" transform="translate(23.38 23.268)" fill="#de524d"></path></g><g id="Gruppe_117" data-name="Gruppe 117" transform="translate(1684.888 37.762)"><path id="Pfad_122" data-name="Pfad 122" d="M-.909-.6H-8.6V7.268c0,2.69,1.4,3.669,3.179,3.669a8.23,8.23,0,0,0,3.99-1.4l2.1,4.535a11.738,11.738,0,0,1-7.036,2.267c-5.26,0-7.958-3.023-7.958-8.6V-.6h-4.1V-5.757h4.1v-6.4H-8.6v6.4H-.909Z" transform="translate(18.425 12.16)" fill="#de524d"></path></g><g id="Gruppe_118" data-name="Gruppe 118" transform="translate(1704.051 43.586)"><path id="Pfad_123" data-name="Pfad 123" d="M-1.094-.587A16.667,16.667,0,0,1-1.2,1.368H-16.263A5.143,5.143,0,0,0-10.8,5.836,8.515,8.515,0,0,0-5.434,3.769L-2.08,7.5a12.787,12.787,0,0,1-9.053,3.267c-6.51,0-11.026-4.49-11.026-11.271s4.384-11.4,10.741-11.4C-5.3-11.9-1.116-7.3-1.094-.587m-15.147-2h9.4C-7.363-5.345-9.008-6.9-11.462-6.9c-2.7,0-4.274,1.646-4.778,4.313" transform="translate(22.159 11.903)" fill="#de524d"></path></g><g id="Gruppe_119" data-name="Gruppe 119" transform="translate(1726.803 43.586)"><path id="Pfad_124" data-name="Pfad 124" d="M-1.029-.211-5.15,3.28A5.853,5.853,0,0,0-9.687,1.124c-2.959,0-5.326,2.356-5.326,5.935,0,3.6,2.345,5.936,5.3,5.936a6.174,6.174,0,0,0,4.625-2.178l4.077,3.534A10.4,10.4,0,0,1-9.534,18.4c-6.773,0-11.311-4.8-11.311-11.338,0-6.513,4.537-11.337,11.311-11.337A10.323,10.323,0,0,1-1.029-.211" transform="translate(20.845 4.279)" fill="#de524d"></path></g></g></svg>